<?xml version="1.0" standalone="no"?>
<!DOCTYPE svg PUBLIC "-//W3C//DTD SVG 20010904//EN"
 "http://www.w3.org/TR/2001/REC-SVG-20010904/DTD/svg10.dtd">
<svg version="1.0" xmlns="http://www.w3.org/2000/svg"
 width="50.000000pt" height="50.000000pt" viewBox="0 0 50.000000 50.000000"
 preserveAspectRatio="xMidYMid meet">

<g transform="translate(0.000000,50.000000) scale(0.100000,-0.100000)"
fill="#000000" stroke="none">
<path d="M149 451 c-26 -27 -29 -36 -27 -88 1 -32 10 -74 20 -95 30 -61 25
-74 -42 -108 -58 -29 -80 -53 -80 -84 0 -14 17 -16 116 -16 l116 0 -8 28 c-11
38 -9 83 5 91 6 4 24 34 39 67 23 47 29 72 28 124 -1 61 -2 65 -35 87 -48 33
-95 30 -132 -6z m122 -12 c28 -19 29 -24 26 -77 -2 -32 -11 -71 -20 -89 -9
-18 -17 -39 -17 -47 0 -23 -36 -39 -60 -26 -11 6 -20 17 -20 24 0 7 -8 28 -17
47 -18 35 -26 106 -17 147 9 43 78 54 125 21z m-71 -268 c0 -14 -18 -23 -30
-16 -6 4 -8 11 -5 16 8 12 35 12 35 0z m-6 -42 c19 16 20 12 6 -23 -9 -25 -13
-26 -85 -26 -74 0 -75 1 -65 21 7 11 30 29 52 39 41 18 41 18 58 -3 15 -18 20
-19 34 -8z"/>
<path d="M335 231 c-45 -20 -70 -60 -70 -112 0 -42 5 -53 33 -81 28 -28 39
-33 82 -33 72 0 115 43 115 115 0 42 -5 54 -31 81 -33 33 -92 46 -129 30z m94
-25 c47 -25 63 -83 37 -135 -35 -66 -137 -66 -172 0 -47 91 44 182 135 135z"/>
<path d="M320 120 c0 -6 27 -10 60 -10 33 0 60 4 60 10 0 6 -27 10 -60 10 -33
0 -60 -4 -60 -10z"/>
</g>
</svg>
