<?xml version="1.0" encoding="iso-8859-1"?>
<!-- Uploaded to: SVG Repo, www.svgrepo.com, Generator: SVG Repo Mixer Tools -->
<svg height="800px" width="800px" version="1.1" id="Layer_1" xmlns="http://www.w3.org/2000/svg" xmlns:xlink="http://www.w3.org/1999/xlink" 
	 viewBox="0 0 512 512" xml:space="preserve">
<path style="fill:#9B9AA5;" d="M308.292,190.55v0.475H203.71V121.14c0-28.833,23.457-52.292,52.291-52.292
	c21.177,0,39.444,12.654,47.653,30.798c5.61,12.398,17.98,20.383,31.588,20.383h0.038c11.642,0,22.492-5.903,28.812-15.681
	s7.236-22.083,2.464-32.703C347.597,29.454,305.176,0,256.001,0c-66.796,0-121.14,54.343-121.14,121.14v104.311
	c0,19.012,15.412,34.424,34.424,34.424h173.431c19.012,0,34.424-15.412,34.424-34.424v-34.9L308.292,190.55L308.292,190.55z"/>
<path style="fill:#C6C5CA;" d="M256.001,191.026H203.71V121.14c0-28.833,23.457-52.292,52.291-52.292l0,0V0l0,0
	c-66.796,0-121.14,54.343-121.14,121.14v104.311c0,19.012,15.412,34.424,34.424,34.424h86.716L256.001,191.026L256.001,191.026z"/>
<path style="fill:#30767A;" d="M441.041,247.103c0-42.952-34.944-77.895-77.895-77.895H148.854
	c-42.951,0-77.894,34.944-77.894,77.895v221.357c0,24.007,19.531,43.539,43.538,43.539H397.5c24.007,0,43.539-19.532,43.539-43.539
	V247.103H441.041z"/>
<path style="fill:#4AB6BF;" d="M256.001,169.208H148.855c-42.951,0-77.894,34.944-77.894,77.895v221.357
	c0,24.007,19.531,43.539,43.538,43.539h141.502L256.001,169.208L256.001,169.208z"/>
<path style="fill:#1D1D1F;" d="M308.874,308.497c0-29.202-23.672-52.874-52.874-52.874s-52.874,23.672-52.874,52.874
	c0,17.374,8.381,32.79,21.32,42.427v41.999c0,17.426,14.127,31.553,31.553,31.553c17.426,0,31.554-14.127,31.554-31.553v-41.999
	C300.492,341.287,308.874,325.872,308.874,308.497z"/>
<path style="fill:#3E3E42;" d="M203.128,308.497c0,17.374,8.381,32.79,21.32,42.427v41.999c0,17.426,14.127,31.553,31.554,31.553
	V255.625C226.799,255.625,203.128,279.297,203.128,308.497z"/>
<path style="fill:#235559;" d="M70.961,463.599v4.862c0,24.007,19.531,43.539,43.538,43.539h283.003
	c24.007,0,43.539-19.532,43.539-43.539v-4.862H70.961z"/>
<path style="fill:#38979E;" d="M70.961,463.599v4.862c0,24.007,19.531,43.539,43.538,43.539h141.502v-48.401H70.961z"/>
</svg>